<svg xmlns="http://www.w3.org/2000/svg" width="240" height="96" viewBox="0 0 240 96" fill="none">
  <rect width="240" height="96" rx="48" fill="#ffffff"/>
  <rect x="4" y="4" width="232" height="88" rx="44" stroke="#000" stroke-width="3"/>
  <circle cx="48" cy="48" r="26" fill="#5227ff"/>
  <path d="M48 34c-6 0-11 4-11 9v2c0 5 5 9 11 9s11-4 11-9v-2c0-5-5-9-11-9z" fill="#fff"/>
  <circle cx="48" cy="42" r="5" fill="#5227ff"/>
  <path d="M40 54c2 4 6 6 8 6s6-2 8-6" stroke="#5227ff" stroke-width="2.5" stroke-linecap="round"/>
  <rect x="88" y="30" width="110" height="10" rx="5" fill="#5227ff" opacity="0.9"/>
  <rect x="88" y="48" width="78" height="8" rx="4" fill="#b0a7d1"/>
  <rect x="88" y="62" width="52" height="8" rx="4" fill="#e4e4e7"/>
  <circle cx="198" cy="28" r="10" fill="#ef4444"/>
  <text x="198" y="32" text-anchor="middle" fill="#fff" font-size="11" font-weight="700" font-family="system-ui,sans-serif">3</text>
</svg>
